<svg width="512" height="512" viewBox="0 0 512 512" fill="none" xmlns="http://www.w3.org/2000/svg">
<path d="M87.4334 272.491L135.855 320.501V336.501V352.501L116.206 371.982L32 288.491V272.491V256.491L116.206 173L135.855 192.481V208.481V224.481L87.4334 272.491Z" fill="#34495E"/>
<path d="M425.11 272.491L377.164 320.501V336.501V352.501L396.619 371.982L480 288.491V272.491V256.491L396.619 173L377.164 192.481V208.481V224.481L425.11 272.491Z" fill="#34495E"/>
<path d="M274.706 197L256 224.251L237.294 197H175V214.5V229L256 347L337 229V214.5V197H274.706Z" fill="#34495E"/>
<path d="M71.2963 256.491L135.855 320.501L116.206 339.982L32 256.491L116.206 173L135.855 192.481L71.2963 256.491Z" fill="#41B883"/>
<path d="M441.089 256.491L377.164 320.501L396.619 339.982L480 256.491L396.619 173L377.164 192.481L441.089 256.491Z" fill="#41B883"/>
<path d="M274.706 197L256 224.251L237.294 197H175L256 315L337 197H274.706Z" fill="#41B883"/>
</svg>
