<?xml version="1.0" encoding="UTF-8" standalone="no"?>
<svg
   width="472"
   height="222.98199"
   viewBox="0 0 472 222.98199"
   fill="none"
   version="1.1"
   id="svg14"
   xmlns="http://www.w3.org/2000/svg"
   xmlns:svg="http://www.w3.org/2000/svg">
  <defs
     id="defs18" />
  <path
     d="m 67.4334,111.491 48.4216,48.01 v 16 16 L 96.206,210.982 12,127.491 v -16 -16 L 96.206,12 115.855,31.481 v 16 16 z"
     fill="#34495e"
     id="path2" />
  <path
     d="m 405.11,111.491 -47.946,48.01 v 16 16 L 376.619,210.982 460,127.491 v -16 -16 L 376.619,12 357.164,31.481 v 16 16 z"
     fill="#34495e"
     id="path4" />
  <path
     d="M 254.706,36 236,63.251 217.294,36 H 155 V 53.5 68 L 236,186 317,68 V 53.5 36 Z"
     fill="#34495e"
     id="path6" />
  <path
     d="M 51.2963,95.491 115.855,159.501 96.206,178.982 12,95.491 96.206,12 115.855,31.481 Z"
     fill="#41b883"
     id="path8" />
  <path
     d="m 421.089,95.491 -63.925,64.01 19.455,19.481 L 460,95.491 376.619,12 357.164,31.481 Z"
     fill="#41b883"
     id="path10" />
  <path
     d="M 254.706,36 236,63.251 217.294,36 H 155 l 81,118 81,-118 z"
     fill="#41b883"
     id="path12" />
</svg>
